<?xml version="1.0" encoding="UTF-8"?>
<svg width="162px" height="52px" viewBox="0 0 162 52" version="1.1" xmlns="http://www.w3.org/2000/svg" xmlns:xlink="http://www.w3.org/1999/xlink">
    <!-- Generator: Sketch 47.1 (45422) - http://www.bohemiancoding.com/sketch -->
    <title>Logo_Hub</title>
    <desc>Created with Sketch.</desc>
    <defs>
        <linearGradient x1="50%" y1="0%" x2="50%" y2="89.836238%" id="linearGradient-1">
            <stop stop-color="#FAFF9D" offset="0%"></stop>
            <stop stop-color="#CCFE9A" offset="45.856677%"></stop>
            <stop stop-color="#B5FE90" offset="63.3246927%"></stop>
            <stop stop-color="#6FEEB4" offset="100%"></stop>
        </linearGradient>
    </defs>
    <g id="Symbols" stroke="none" stroke-width="1" fill="none" fill-rule="evenodd">
        <g id="Logo_Hub">
            <rect id="Rectangle-6" stroke="url(#linearGradient-1)" stroke-width="4" x="2" y="2" width="49" height="48"></rect>
            <g id="Group-2" transform="translate(8.000000, 21.000000)" fill="#000000">
                <path d="M11.744,5.152 C11.488,3.136 11.328,1.888 11.2,0.736 C9.984,0.352 8.64,0 7.168,0 C3.04,0 0.576,2.624 0.576,5.696 C0.576,9.312 3.808,10.912 5.856,12 C8.256,13.28 10.016,14.4 10.016,16.768 C10.016,19.104 8.576,20.608 6.176,20.608 C2.88,20.608 1.44,17.376 0.928,15.424 L0,15.648 C0.192,17.184 0.608,19.936 0.864,20.608 C1.152,20.768 1.632,20.992 2.432,21.28 C3.232,21.504 4.256,21.76 5.568,21.76 C9.824,21.76 12.672,19.072 12.672,15.712 C12.672,12.128 9.632,10.624 7.136,9.344 C4.608,8.032 3.072,6.944 3.072,4.608 C3.072,2.88 4.16,1.088 6.624,1.088 C9.408,1.088 10.24,3.296 10.816,5.344 L11.744,5.152 Z" id="S"></path>
                <path d="M25.296,17.816 C23.824,19.192 22.768,19.576 21.392,19.576 C19.6,19.576 16.56,18.104 16.56,13.656 C16.56,10.296 18.416,8.536 20.528,8.536 C21.648,8.536 22.768,8.952 23.728,9.848 C24.016,10.104 24.176,10.2 24.336,10.2 C24.688,10.2 25.392,9.496 25.392,8.824 C25.392,8.472 25.296,8.184 24.88,7.832 C24.368,7.416 23.312,7 22.032,7 L22,7 C20.784,7 18.864,7.512 17.2,8.792 C15.056,10.456 14,12.6 14,15.064 C14,18.488 16.368,21.752 20.4,21.752 C22.288,21.752 24.432,20.344 25.84,18.488 L25.296,17.816 Z" id="c"></path>
                <path d="M32.296,4.296 C33.224,4.296 33.928,3.528 33.928,2.664 C33.928,1.704 33.224,1 32.328,1 C31.464,1 30.696,1.704 30.696,2.664 C30.696,3.528 31.464,4.296 32.296,4.296 Z M36.04,21.448 L36.04,20.616 C33.992,20.424 33.768,20.232 33.768,18.056 L33.768,7.016 C32.36,7.592 30.856,8.008 29.224,8.264 L29.224,9.032 C31.144,9.32 31.24,9.48 31.24,11.432 L31.24,18.056 C31.24,20.232 31.016,20.424 29,20.616 L29,21.448 L36.04,21.448 Z" id="i"></path>
            </g>
            <polygon id="T" fill="#000000" points="76 24.7142857 69.625 24.7142857 69.625 41 65.375 41 65.375 24.7142857 59 24.7142857 59 21 76 21"></polygon>
            <path d="M90.4658635,39.1837838 C89.8286447,39.683486 88.9618529,40.1111093 87.8654618,40.4666667 C86.7690708,40.822224 85.5930451,41 84.3373494,41 C81.8072163,41 79.9518131,40.288896 78.7710843,38.8666667 C77.5903555,37.4444373 77,35.4937061 77,33.0144144 C77,30.3813682 77.6653213,28.3873942 78.9959839,27.0324324 C80.3266465,25.6774707 82.2007911,25 84.6184739,25 C85.4056264,25 86.1833964,25.1008999 86.9518072,25.3027027 C87.720218,25.5045055 88.4042808,25.8408385 89.0040161,26.3117117 C89.6037513,26.7825849 90.0863436,27.4168128 90.4518072,28.2144144 C90.8172709,29.012016 91,29.9969911 91,31.1693694 C91,31.572975 90.9765732,32.0150126 90.9297189,32.4954955 C90.8828646,32.9759784 90.8032134,33.4756731 90.6907631,33.9945946 L80.8514056,33.9945946 C80.9451143,35.301508 81.3152578,36.2672641 81.9618474,36.8918919 C82.608437,37.5165196 83.6626433,37.8288288 85.124498,37.8288288 C86.0053592,37.8288288 86.7971852,37.6991004 87.5,37.4396396 C88.2028148,37.1801789 88.7416313,36.9159173 89.1164659,36.6468468 L90.4658635,39.1837838 Z M84.562249,28.1711712 C83.4002619,28.1711712 82.5381554,28.4930899 81.9759036,29.1369369 C81.4136518,29.780784 81.0856765,30.6023974 80.9919679,31.6018018 L87.3453815,31.6018018 C87.4203484,30.5447395 87.232934,29.7087118 86.7831325,29.0936937 C86.3333311,28.4786756 85.593044,28.1711712 84.562249,28.1711712 Z" id="e" fill="#000000"></path>
            <path d="M106,39.645045 C105.361499,40.0870893 104.596249,40.4234223 103.704225,40.6540541 C102.812202,40.8846858 101.887329,41 100.929577,41 C99.6525758,41 98.5774692,40.8078097 97.7042254,40.4234234 C96.8309815,40.0390371 96.1173737,39.4912948 95.5633803,38.7801802 C95.0093869,38.0690655 94.6103299,37.2282331 94.3661972,36.2576577 C94.1220645,35.2870822 94,34.206012 94,33.0144144 C94,30.4966841 94.6056277,28.5315386 95.8169014,27.1189189 C97.0281751,25.7062992 98.7887208,25 101.098592,25 C102.225358,25 103.150231,25.0912904 103.873239,25.2738739 C104.596248,25.4564574 105.239434,25.6918905 105.802817,25.9801802 L104.84507,29.209009 C104.356805,28.9975965 103.873242,28.8390396 103.394366,28.7333333 C102.915491,28.6276271 102.356811,28.5747748 101.71831,28.5747748 C100.535205,28.5747748 99.6291111,28.925522 99,29.627027 C98.3708889,30.328532 98.056338,31.4576499 98.056338,33.0144144 C98.056338,33.6294325 98.1314546,34.2011986 98.2816901,34.7297297 C98.4319256,35.2582609 98.6666651,35.7243223 98.9859155,36.1279279 C99.3051659,36.5315335 99.7089177,36.8486475 100.197183,37.0792793 C100.685448,37.3099111 101.258213,37.4252252 101.915493,37.4252252 C102.704229,37.4252252 103.328636,37.3531539 103.788732,37.209009 C104.248829,37.0648641 104.685444,36.8678691 105.098592,36.618018 L106,39.645045 Z" id="c" fill="#000000"></path>
            <polygon id="H" fill="#000000" points="121.888889 32.7428571 114.111111 32.7428571 114.111111 41 110 41 110 21 114.111111 21 114.111111 29.0285714 121.888889 29.0285714 121.888889 21 126 21 126 41 121.888889 41"></polygon>
            <path d="M133.957059,26 L133.957059,34.0833333 C133.957059,35.2870431 134.126645,36.1666639 134.465823,36.7222222 C134.805001,37.2777806 135.455083,37.5555556 136.416088,37.5555556 C137.24519,37.5555556 137.942379,37.3425947 138.507676,36.9166667 C139.072973,36.4907386 139.487518,35.9537069 139.751323,35.3055556 L139.751323,26 L143.708381,26 L143.708381,36.1388889 C143.708381,36.9166706 144,40.5833333 144,40.5833333 L140.699067,40.5833333 L140.51447,38.3055556 L140.203558,38.3055556 C139.713634,39.0833372 139.016445,39.7268493 138.11197,40.2361111 C137.207495,40.7453729 136.171133,41 135.002853,41 C134.192594,41 133.476562,40.8981492 132.854735,40.6944444 C132.232908,40.4907397 131.710017,40.1527801 131.286044,39.6805556 C130.862071,39.208331 130.541741,38.5833372 130.325044,37.8055556 C130.108347,37.0277739 130,36.0648206 130,34.9166667 L130,26 L133.957059,26 Z" id="u" fill="#000000"></path>
            <path d="M148,21 L151.881188,21 L151.881188,27.171108 L152.213861,27.171108 C152.657428,26.6661966 153.225739,26.2688187 153.918812,25.9789621 C154.611885,25.6891056 155.374253,25.5441795 156.205941,25.5441795 C158.091099,25.5441795 159.528048,26.1659592 160.516832,27.4095372 C161.505616,28.6531151 162,30.4717038 162,32.8653576 C162,34.1556867 161.819804,35.3057453 161.459406,36.315568 C161.099008,37.3253907 160.586142,38.1762471 159.920792,38.8681627 C159.255442,39.5600783 158.442249,40.0883572 157.481188,40.4530154 C156.520127,40.8176736 155.43895,41 154.237624,41 C152.851478,41 151.613207,40.9018243 150.522772,40.7054698 C149.432338,40.5091154 148.591422,40.2893888 148,40.0462833 L148,21 Z M151.881188,37.2973352 C152.250827,37.4843394 152.643562,37.6012153 153.059406,37.6479663 C153.47525,37.6947174 153.92343,37.7180926 154.40396,37.7180926 C156.806613,37.7180926 158.007921,36.1285806 158.007921,32.9495091 C158.007921,31.6030788 157.758418,30.5792461 157.259406,29.8779804 C156.760394,29.1767146 156.021127,28.826087 155.041584,28.826087 C154.209897,28.826087 153.539937,29.0224384 153.031683,29.4151473 C152.52343,29.8078561 152.139935,30.3875604 151.881188,31.1542777 L151.881188,37.2973352 Z" id="b" fill="#000000"></path>
        </g>
    </g>
</svg>