<?xml version="1.0" encoding="UTF-8"?>
<svg width="124px" height="52px" viewBox="0 0 124 52" version="1.1" xmlns="http://www.w3.org/2000/svg" xmlns:xlink="http://www.w3.org/1999/xlink">
    <!-- Generator: Sketch 46 (44423) - http://www.bohemiancoding.com/sketch -->
    <title>Logo</title>
    <desc>Created with Sketch.</desc>
    <defs>
        <linearGradient x1="50%" y1="0%" x2="50%" y2="89.836238%" id="linearGradient-1">
            <stop stop-color="#FAFF9D" offset="0%"></stop>
            <stop stop-color="#CCFE9A" offset="45.856677%"></stop>
            <stop stop-color="#B5FE90" offset="63.3246927%"></stop>
            <stop stop-color="#6FEEB4" offset="100%"></stop>
        </linearGradient>
    </defs>
    <g id="Symbols" stroke="none" stroke-width="1" fill="none" fill-rule="evenodd">
        <g id="Navigation-menu" transform="translate(-33.000000, -10.000000)">
            <g id="Logo" transform="translate(33.000000, 10.000000)">
                <g id="Group-7">
                    <rect id="Rectangle-6" stroke="url(#linearGradient-1)" stroke-width="4" x="2" y="2" width="49" height="48"></rect>
                    <g id="Group-2" transform="translate(8.000000, 21.000000)" fill="#000000">
                        <path d="M11.744,5.152 C11.488,3.136 11.328,1.888 11.2,0.736 C9.984,0.352 8.64,0 7.168,0 C3.04,0 0.576,2.624 0.576,5.696 C0.576,9.312 3.808,10.912 5.856,12 C8.256,13.28 10.016,14.4 10.016,16.768 C10.016,19.104 8.576,20.608 6.176,20.608 C2.88,20.608 1.44,17.376 0.928,15.424 L0,15.648 C0.192,17.184 0.608,19.936 0.864,20.608 C1.152,20.768 1.632,20.992 2.432,21.28 C3.232,21.504 4.256,21.76 5.568,21.76 C9.824,21.76 12.672,19.072 12.672,15.712 C12.672,12.128 9.632,10.624 7.136,9.344 C4.608,8.032 3.072,6.944 3.072,4.608 C3.072,2.88 4.16,1.088 6.624,1.088 C9.408,1.088 10.24,3.296 10.816,5.344 L11.744,5.152 Z" id="S"></path>
                        <path d="M25.296,17.816 C23.824,19.192 22.768,19.576 21.392,19.576 C19.6,19.576 16.56,18.104 16.56,13.656 C16.56,10.296 18.416,8.536 20.528,8.536 C21.648,8.536 22.768,8.952 23.728,9.848 C24.016,10.104 24.176,10.2 24.336,10.2 C24.688,10.2 25.392,9.496 25.392,8.824 C25.392,8.472 25.296,8.184 24.88,7.832 C24.368,7.416 23.312,7 22.032,7 L22,7 C20.784,7 18.864,7.512 17.2,8.792 C15.056,10.456 14,12.6 14,15.064 C14,18.488 16.368,21.752 20.4,21.752 C22.288,21.752 24.432,20.344 25.84,18.488 L25.296,17.816 Z" id="c"></path>
                        <path d="M32.296,4.296 C33.224,4.296 33.928,3.528 33.928,2.664 C33.928,1.704 33.224,1 32.328,1 C31.464,1 30.696,1.704 30.696,2.664 C30.696,3.528 31.464,4.296 32.296,4.296 Z M36.04,21.448 L36.04,20.616 C33.992,20.424 33.768,20.232 33.768,18.056 L33.768,7.016 C32.36,7.592 30.856,8.008 29.224,8.264 L29.224,9.032 C31.144,9.32 31.24,9.48 31.24,11.432 L31.24,18.056 C31.24,20.232 31.016,20.424 29,20.616 L29,21.448 L36.04,21.448 Z" id="i"></path>
                    </g>
                    <g id="Group-4" transform="translate(59.000000, 21.000000)" fill="#000000">
                        <polygon id="T" points="16.576 3.64 10.36 3.64 10.36 19.6 6.216 19.6 6.216 3.64 0 3.64 0 0 16.576 0"></polygon>
                        <path d="M31.412,17.776 C30.7773302,18.2613358 29.9140055,18.6766649 28.822,19.022 C27.7299945,19.3673351 26.5586729,19.54 25.308,19.54 C22.7879874,19.54 20.9400059,18.8493402 19.764,17.468 C18.5879941,16.0866598 18,14.192012 18,11.784 C18,9.22665388 18.66266,7.29000658 19.988,5.974 C21.31334,4.65799342 23.179988,4 25.588,4 C26.3720039,4 27.1466628,4.09799902 27.912,4.294 C28.6773372,4.49000098 29.3586637,4.81666438 29.956,5.274 C30.5533363,5.73133562 31.0339982,6.34732946 31.398,7.122 C31.7620018,7.89667054 31.944,8.85332764 31.944,9.992 C31.944,10.384002 31.9206669,10.813331 31.874,11.28 C31.8273331,11.746669 31.7480006,12.2319975 31.636,12.736 L21.836,12.736 C21.9293338,14.0053397 22.2979968,14.9433303 22.942,15.55 C23.5860032,16.1566697 24.6359927,16.46 26.092,16.46 C26.9693377,16.46 27.7579965,16.3340013 28.458,16.082 C29.1580035,15.8299987 29.6946648,15.5733346 30.068,15.312 L31.412,17.776 Z M25.532,7.08 C24.3746609,7.08 23.5160028,7.39266354 22.956,8.018 C22.3959972,8.64333646 22.0693338,9.44132848 21.976,10.412 L28.304,10.412 C28.378667,9.3853282 28.1920022,8.57333632 27.744,7.976 C27.2959978,7.37866368 26.5586718,7.08 25.532,7.08 Z" id="e"></path>
                        <path d="M46.928,18.224 C46.2933302,18.6533355 45.5326711,18.9799989 44.646,19.204 C43.7593289,19.4280011 42.8400048,19.54 41.888,19.54 C40.6186603,19.54 39.5500043,19.3533352 38.682,18.98 C37.8139957,18.6066648 37.1046694,18.0746701 36.554,17.384 C36.0033306,16.6933299 35.6066679,15.8766714 35.364,14.934 C35.1213321,13.9913286 35,12.9413391 35,11.784 C35,9.33865444 35.601994,7.43000686 36.806,6.058 C38.010006,4.68599314 39.7599885,4 42.056,4 C43.1760056,4 44.0953297,4.08866578 44.814,4.266 C45.5326703,4.44333422 46.1719972,4.6719986 46.732,4.952 L45.78,8.088 C45.2946642,7.88266564 44.8140024,7.72866718 44.338,7.626 C43.8619976,7.52333282 43.3066698,7.472 42.672,7.472 C41.4959941,7.472 40.5953365,7.81266326 39.97,8.494 C39.3446635,9.17533674 39.032,10.2719924 39.032,11.784 C39.032,12.3813363 39.1066659,12.9366641 39.256,13.45 C39.4053341,13.9633359 39.6386651,14.415998 39.956,14.808 C40.2733349,15.200002 40.6746642,15.5079989 41.16,15.732 C41.6453358,15.9560011 42.2146634,16.068 42.868,16.068 C43.6520039,16.068 44.2726644,15.9980007 44.73,15.858 C45.1873356,15.7179993 45.6213313,15.5266679 46.032,15.284 L46.928,18.224 Z" id="c"></path>
                        <path d="M60.912,19.6 L60.912,11.508 C60.912,10.2386603 60.7206686,9.32866942 60.338,8.778 C59.9553314,8.22733058 59.2506718,7.952 58.224,7.952 C57.4773296,7.952 56.7913365,8.18999762 56.166,8.666 C55.5406635,9.14200238 55.1253344,9.77199608 54.92,10.556 L54.92,19.6 L51,19.6 L51,0 L54.92,0 L54.92,6.692 L55.256,6.692 C55.7600025,6.0386634 56.3899962,5.50666872 57.146,5.096 C57.9020038,4.68533128 58.8586609,4.48 60.016,4.48 C60.8186707,4.48 61.5186637,4.57799902 62.116,4.774 C62.7133363,4.97000098 63.2126647,5.30599762 63.614,5.782 C64.0153353,6.25800238 64.3186656,6.8926627 64.524,7.686 C64.7293344,8.4793373 64.832,9.46399412 64.832,10.64 L64.832,19.6 L60.912,19.6 Z" id="h"></path>
                    </g>
                </g>
            </g>
        </g>
    </g>
</svg>