<?xml version="1.0" encoding="utf-8"?>
<!-- Generator: Adobe Illustrator 21.1.0, SVG Export Plug-In . SVG Version: 6.00 Build 0)  -->
<svg version="1.1" id="Layer_1" xmlns="http://www.w3.org/2000/svg" xmlns:xlink="http://www.w3.org/1999/xlink" x="0px" y="0px"
	 viewBox="0 0 162 52" style="enable-background:new 0 0 162 52;" xml:space="preserve">
<style type="text/css">
	.st0{fill:none;stroke:url(#Rectangle-6_1_);stroke-width:4;}
</style>
<g id="Symbols">
	<g id="Logo_Hub">
		
			<linearGradient id="Rectangle-6_1_" gradientUnits="userSpaceOnUse" x1="-1176.9694" y1="14.875" x2="-1176.9694" y2="15.7734" gradientTransform="matrix(49 0 0 48 57698 -712)">
			<stop  offset="0" style="stop-color:#FAFF9D"/>
			<stop  offset="0.4586" style="stop-color:#CCFE9A"/>
			<stop  offset="0.6332" style="stop-color:#B5FE90"/>
			<stop  offset="1" style="stop-color:#6FEEB4"/>
		</linearGradient>
		<rect id="Rectangle-6" x="2" y="2" class="st0" width="49" height="48"/>
		<g id="Group-2" transform="translate(8.000000, 21.000000)">
			<path id="S" d="M11.7,5.2c-0.3-2-0.4-3.3-0.5-4.4C10,0.4,8.6,0,7.2,0C3,0,0.6,2.6,0.6,5.7c0,3.6,3.2,5.2,5.3,6.3
				c2.4,1.3,4.2,2.4,4.2,4.8c0,2.3-1.4,3.8-3.8,3.8c-3.3,0-4.7-3.2-5.2-5.2L0,15.6c0.2,1.5,0.6,4.3,0.9,5c0.3,0.2,0.8,0.4,1.6,0.7
				c0.8,0.2,1.8,0.5,3.1,0.5c4.3,0,7.1-2.7,7.1-6c0-3.6-3-5.1-5.5-6.4C4.6,8,3.1,6.9,3.1,4.6c0-1.7,1.1-3.5,3.6-3.5
				c2.8,0,3.6,2.2,4.2,4.3L11.7,5.2z"/>
			<path id="c" d="M25.3,17.8c-1.5,1.4-2.5,1.8-3.9,1.8c-1.8,0-4.8-1.5-4.8-5.9c0-3.4,1.9-5.1,4-5.1c1.1,0,2.2,0.4,3.2,1.3
				c0.3,0.3,0.4,0.4,0.6,0.4c0.4,0,1.1-0.7,1.1-1.4c0-0.4-0.1-0.6-0.5-1C24.4,7.4,23.3,7,22,7l0,0c-1.2,0-3.1,0.5-4.8,1.8
				c-2.1,1.7-3.2,3.8-3.2,6.3c0,3.4,2.4,6.7,6.4,6.7c1.9,0,4-1.4,5.4-3.3L25.3,17.8z"/>
			<path id="i" d="M32.3,4.3c0.9,0,1.6-0.8,1.6-1.6c0-1-0.7-1.7-1.6-1.7c-0.9,0-1.6,0.7-1.6,1.7C30.7,3.5,31.5,4.3,32.3,4.3z
				 M36,21.4v-0.8c-2-0.2-2.3-0.4-2.3-2.6V7c-1.4,0.6-2.9,1-4.5,1.2V9c1.9,0.3,2,0.4,2,2.4V18c0,2.2-0.2,2.4-2.2,2.6v0.8H36z"/>
		</g>
		<polygon id="T" points="76,24.7 69.6,24.7 69.6,41 65.4,41 65.4,24.7 59,24.7 59,21 76,21 		"/>
		<path id="e" d="M90.5,39.2c-0.6,0.5-1.5,0.9-2.6,1.3S85.6,41,84.3,41c-2.5,0-4.4-0.7-5.6-2.1C77.6,37.4,77,35.5,77,33
			c0-2.6,0.7-4.6,2-6s3.2-2,5.6-2c0.8,0,1.6,0.1,2.3,0.3c0.8,0.2,1.5,0.5,2.1,1s1.1,1.1,1.4,1.9s0.5,1.8,0.5,3c0,0.4,0,0.8-0.1,1.3
			c-0.1,0.5-0.1,1-0.2,1.5h-9.8c0.1,1.3,0.5,2.3,1.1,2.9c0.6,0.6,1.7,0.9,3.2,0.9c0.9,0,1.7-0.1,2.4-0.4s1.2-0.5,1.6-0.8L90.5,39.2z
			 M84.6,28.2c-1.2,0-2,0.3-2.6,1c-0.6,0.6-0.9,1.5-1,2.5h6.4c0.1-1.1-0.1-1.9-0.6-2.5C86.3,28.5,85.6,28.2,84.6,28.2z"/>
		<path id="c_1_" d="M106,39.6c-0.6,0.4-1.4,0.8-2.3,1s-1.8,0.3-2.8,0.3c-1.3,0-2.4-0.2-3.2-0.6c-0.9-0.4-1.6-0.9-2.1-1.6
			c-0.6-0.7-1-1.6-1.2-2.5c-0.2-1-0.4-2.1-0.4-3.2c0-2.5,0.6-4.5,1.8-5.9c1.2-1.4,3-2.1,5.3-2.1c1.1,0,2.1,0.1,2.8,0.3
			c0.7,0.2,1.4,0.4,1.9,0.7l-1,3.2c-0.5-0.2-1-0.4-1.5-0.5s-1-0.2-1.7-0.2c-1.2,0-2.1,0.4-2.7,1.1S98,31.4,98,33
			c0,0.6,0.1,1.2,0.2,1.7c0.2,0.5,0.4,1,0.7,1.4c0.3,0.4,0.7,0.7,1.2,1c0.5,0.2,1.1,0.3,1.7,0.3c0.8,0,1.4-0.1,1.9-0.2
			c0.5-0.1,0.9-0.3,1.3-0.6L106,39.6z"/>
		<polygon id="H" points="121.9,32.7 114.1,32.7 114.1,41 110,41 110,21 114.1,21 114.1,29 121.9,29 121.9,21 126,21 126,41 
			121.9,41 		"/>
		<path id="u" d="M134,26v8.1c0,1.2,0.2,2.1,0.5,2.6c0.3,0.6,1,0.8,2,0.8c0.8,0,1.5-0.2,2.1-0.6c0.6-0.4,1-1,1.2-1.6V26h4v10.1
			c0,0.8,0.3,4.4,0.3,4.4h-3.3l-0.2-2.3h-0.3c-0.5,0.8-1.2,1.4-2.1,1.9s-2,0.9-3.2,0.9c-0.8,0-1.5-0.1-2.1-0.3s-1.1-0.5-1.6-1
			c-0.4-0.5-0.7-1.1-1-1.9c-0.2-0.8-0.3-1.7-0.3-2.9V26H134z"/>
		<path id="b" d="M148,21h3.9v6.2h0.3c0.4-0.5,1-0.9,1.7-1.2s1.5-0.4,2.3-0.4c1.9,0,3.3,0.6,4.3,1.9s1.5,3.1,1.5,5.5
			c0,1.3-0.2,2.4-0.5,3.5s-0.9,1.9-1.5,2.6c-0.7,0.7-1.5,1.2-2.4,1.6s-2,0.5-3.2,0.5c-1.4,0-2.6-0.1-3.7-0.3
			c-1.1-0.2-1.9-0.4-2.5-0.7V21H148z M151.9,37.3c0.4,0.2,0.8,0.3,1.2,0.4c0.4,0,0.9,0.1,1.3,0.1c2.4,0,3.6-1.6,3.6-4.8
			c0-1.3-0.2-2.4-0.7-3.1s-1.2-1.1-2.2-1.1c-0.8,0-1.5,0.2-2,0.6s-0.9,1-1.2,1.7L151.9,37.3L151.9,37.3z"/>
	</g>
</g>
</svg>
