<?xml version="1.0" encoding="UTF-8" standalone="no"?>
<svg
   xmlns:dc="http://purl.org/dc/elements/1.1/"
   xmlns:cc="http://creativecommons.org/ns#"
   xmlns:rdf="http://www.w3.org/1999/02/22-rdf-syntax-ns#"
   xmlns:svg="http://www.w3.org/2000/svg"
   xmlns="http://www.w3.org/2000/svg"
   xmlns:sodipodi="http://sodipodi.sourceforge.net/DTD/sodipodi-0.dtd"
   xmlns:inkscape="http://www.inkscape.org/namespaces/inkscape"
   width="72"
   height="75"
   viewBox="0 0 72 75"
   version="1.1"
   id="svg5197"
   sodipodi:docname="plasma.svg"
   inkscape:version="0.92.1 r15371">
  <metadata
     id="metadata5201">
    <rdf:RDF>
      <cc:Work
         rdf:about="">
        <dc:format>image/svg+xml</dc:format>
        <dc:type
           rdf:resource="http://purl.org/dc/dcmitype/StillImage" />
        <dc:title></dc:title>
      </cc:Work>
    </rdf:RDF>
  </metadata>
  <sodipodi:namedview
     pagecolor="#ffffff"
     bordercolor="#666666"
     borderopacity="1"
     objecttolerance="10"
     gridtolerance="10"
     guidetolerance="10"
     inkscape:pageopacity="0"
     inkscape:pageshadow="2"
     inkscape:window-width="1920"
     inkscape:window-height="1017"
     id="namedview5199"
     showgrid="false"
     inkscape:zoom="8"
     inkscape:cx="-15.155796"
     inkscape:cy="51.717181"
     inkscape:window-x="-8"
     inkscape:window-y="-8"
     inkscape:window-maximized="1"
     inkscape:current-layer="svg5197" />
  <defs
     id="defs5099">
    <path
       id="b"
       d="M0 0h1024v72H0z" />
    <filter
       id="a"
       width="101.4%"
       height="119.4%"
       x="-.7%"
       y="-6.9%"
       filterUnits="objectBoundingBox">
      <feOffset
         dy="2"
         in="SourceAlpha"
         result="shadowOffsetOuter1"
         id="feOffset5087" />
      <feGaussianBlur
         in="shadowOffsetOuter1"
         result="shadowBlurOuter1"
         stdDeviation="2"
         id="feGaussianBlur5089" />
      <feColorMatrix
         in="shadowBlurOuter1"
         values="0 0 0 0 0 0 0 0 0 0 0 0 0 0 0 0 0 0 0.14880548 0"
         id="feColorMatrix5091" />
    </filter>
    <linearGradient
       id="c"
       x1="891.00328"
       x2="891.00328"
       y1="-9.2504914"
       y2="73.226984"
       gradientTransform="matrix(0.97979418,0,0,1.0206225,-837,-1)"
       gradientUnits="userSpaceOnUse">
      <stop
         offset="0%"
         stop-color="#FFFFA0"
         id="stop5094" />
      <stop
         offset="100%"
         stop-color="#C5FFF2"
         id="stop5096" />
    </linearGradient>
  </defs>
  <path
     style="fill:#ffffff;fill-rule:evenodd"
     inkscape:connector-curvature="0"
     id="path5129"
     d="m -75,-1 h 60 v 69 h -60 z" />
  <path
     inkscape:connector-curvature="0"
     style="fill:url(#c);fill-rule:evenodd"
     id="path5187"
     d="M 0.045,37.015 C -0.506,34.613 4.005,25.278 13.577,9.012 28.454,0.898 38.509,-1.737 43.743,1.108 51.593,5.374 80.898,35.029 69.331,45.642 57.764,56.255 24.548,81.624 15.78,73.38 7.011,65.136 0.872,40.619 0.045,37.015 Z" />
  <g
     aria-label="PLASMA +"
     style="font-weight:bold;font-size:14px;font-family:PTSans-CaptionBold, 'PT Sans Caption';fill:#000000;fill-rule:evenodd"
     id="text5193">
    <path
       d="m 25.700195,27.03418 q 0,0.683593 -0.239258,1.339843 -0.239257,0.649414 -0.683593,1.09375 -0.608399,0.601563 -1.360352,0.90918 -0.745117,0.307617 -1.859375,0.307617 H 19.923828 V 34 h -2.625 V 23.821289 h 4.320313 q 0.970703,0 1.633789,0.170898 0.669922,0.164063 1.182617,0.499024 0.615234,0.40332 0.936523,1.032226 0.328125,0.628907 0.328125,1.510743 z m -2.713867,0.06152 q 0,-0.430664 -0.232422,-0.738281 -0.232422,-0.314453 -0.540039,-0.4375 Q 21.803711,25.755859 21.414062,25.742187 21.024414,25.72168 20.375,25.72168 h -0.451172 v 3.048828 h 0.751953 q 0.669922,0 1.100586,-0.08203 0.4375,-0.08203 0.731445,-0.328125 0.25293,-0.21875 0.362305,-0.519532 0.116211,-0.307617 0.116211,-0.745117 z"
       style=""
       id="path5857" />
    <path
       d="M 34.894531,34 H 27.552734 V 23.821289 h 2.625 v 8.209961 h 4.716797 z"
       style=""
       id="path5859" />
    <path
       d="M 45.873047,34 H 43.15918 L 42.455078,31.942383 H 38.681641 L 37.977539,34 h -2.645508 l 3.759766,-10.178711 h 3.021484 z m -4.053711,-3.923828 -1.250977,-3.650391 -1.250976,3.650391 z"
       style=""
       id="path5861" />
    <path
       d="m 55.498047,30.800781 q 0,1.503906 -1.27832,2.447266 -1.271485,0.936523 -3.458985,0.936523 -1.264648,0 -2.208008,-0.21875 -0.936523,-0.225586 -1.756836,-0.567383 v -2.440429 h 0.28711 q 0.813476,0.649414 1.818359,0.998047 1.011719,0.348632 1.941406,0.348632 0.239258,0 0.628907,-0.04102 0.389648,-0.04102 0.635742,-0.136719 0.300781,-0.123047 0.492187,-0.307617 0.198243,-0.18457 0.198243,-0.546875 0,-0.334961 -0.28711,-0.574219 -0.280273,-0.246094 -0.827148,-0.375976 -0.574219,-0.136719 -1.216797,-0.25293 -0.635742,-0.123047 -1.196289,-0.307617 -1.285156,-0.416992 -1.852539,-1.12793 -0.560547,-0.717773 -0.560547,-1.777344 0,-1.421875 1.271484,-2.317383 1.278321,-0.902343 3.28125,-0.902343 1.004883,0 1.982422,0.198242 0.984375,0.191406 1.702149,0.485351 v 2.344727 h -0.280274 q -0.615234,-0.492187 -1.510742,-0.820312 -0.888672,-0.334961 -1.818359,-0.334961 -0.328125,0 -0.65625,0.04785 -0.32129,0.04102 -0.622071,0.164063 -0.266601,0.102539 -0.458008,0.314453 -0.191406,0.205078 -0.191406,0.471679 0,0.403321 0.307617,0.622071 0.307618,0.211914 1.16211,0.389648 0.560547,0.116211 1.073242,0.225586 0.519531,0.109375 1.114258,0.300781 1.168945,0.382813 1.722656,1.045899 0.560547,0.65625 0.560547,1.708984 z"
       style=""
       id="path5863" />
    <path
       d="M 27.969727,51 H 25.358398 V 44.18457 L 23.47168,48.607422 H 21.660156 L 19.773437,44.18457 V 51 H 17.298828 V 40.821289 h 3.048828 l 2.290039,5.106445 2.283203,-5.106445 h 3.048829 z"
       style=""
       id="path5865" />
    <path
       d="M 39.966797,51 H 37.25293 L 36.548828,48.942383 H 32.775391 L 32.071289,51 h -2.645508 l 3.759766,-10.178711 h 3.021484 z m -4.053711,-3.923828 -1.250977,-3.650391 -1.250976,3.650391 z"
       style=""
       id="path5867" />
    <path
       d="M 55.580078,47.390625 H 51.936523 V 51 h -1.873046 v -3.609375 h -3.643555 v -1.832031 h 3.643555 v -3.609375 h 1.873046 v 3.609375 h 3.643555 z"
       style=""
       id="path5869" />
  </g>
</svg>
